<svg xmlns="http://www.w3.org/2000/svg" xmlns:xlink="http://www.w3.org/1999/xlink" width="450" zoomAndPan="magnify" viewBox="177 145 20 80" height="150" preserveAspectRatio="xMidYMid meet" version="1.0"><defs><g/></defs><g fill="#053d5d" fill-opacity="1"><g transform="translate(87.646816, 195.749987)"><g><path d="M 3.625 0 L 3.625 -7.597656 L 11.347656 -7.597656 L 11.347656 0 L 13.097656 0 L 13.097656 -17 L 11.347656 -17 L 11.347656 -9.347656 L 3.625 -9.347656 L 3.625 -17 L 1.875 -17 L 1.875 0 Z M 3.625 0 "/></g></g></g><g fill="#053d5d" fill-opacity="1"><g transform="translate(114.344427, 195.749987)"><g><path d="M 11.972656 0 L 11.972656 -1.625 L 3.625 -1.625 L 3.625 -7.675781 L 11.722656 -7.675781 L 11.722656 -9.324219 L 3.625 -9.324219 L 3.625 -15.375 L 11.972656 -15.375 L 11.972656 -17 L 1.875 -17 L 1.875 0 Z M 11.972656 0 "/></g></g></g><g fill="#053d5d" fill-opacity="1"><g transform="translate(139.917221, 195.749987)"><g><path d="M 3.625 -8.425781 L 3.625 -15.324219 L 7.574219 -15.324219 C 8.597656 -15.324219 9.425781 -15 10.050781 -14.375 C 10.648438 -13.722656 10.972656 -12.921875 10.972656 -11.921875 C 10.972656 -10.898438 10.648438 -10.074219 10 -9.398438 C 9.347656 -8.75 8.550781 -8.425781 7.574219 -8.425781 Z M 12.722656 -11.875 C 12.722656 -13.375 12.171875 -14.597656 11.125 -15.574219 C 10.074219 -16.523438 8.824219 -17 7.324219 -17 L 1.875 -17 L 1.875 0 L 3.625 0 L 3.625 -6.722656 L 7.324219 -6.722656 C 8.824219 -6.722656 10.097656 -7.199219 11.125 -8.148438 C 12.171875 -9.148438 12.722656 -10.375 12.722656 -11.875 Z M 12.722656 -11.875 "/></g></g></g><g fill="#053d5d" fill-opacity="1"><g transform="translate(164.865111, 195.749987)"><g><path d="M 0.5 -15.421875 L 4.625 -15.421875 L 4.625 -0.0507812 L 6.375 -0.0507812 L 6.375 -15.421875 L 10.5 -15.421875 L 10.5 -17.046875 L 0.5 -17.046875 Z M 0.5 -15.421875 "/></g></g></g><g fill="#053d5d" fill-opacity="1"><g transform="translate(187.58836, 195.749987)"><g><path d="M 4.625 -6.25 L 7.722656 -14.074219 L 10.800781 -6.25 Z M 15.171875 0 L 7.722656 -18.171875 L 0.25 0 L 2.148438 0 L 3.972656 -4.625 L 11.449219 -4.625 L 13.273438 0 Z M 15.171875 0 "/></g></g></g><g fill="#053d5d" fill-opacity="1"><g transform="translate(214.735907, 195.749987)"><g><path d="M 3.625 -8.425781 L 3.625 -15.324219 L 7.574219 -15.324219 C 8.597656 -15.324219 9.425781 -15 10.050781 -14.375 C 10.648438 -13.722656 10.972656 -12.921875 10.972656 -11.921875 C 10.972656 -10.898438 10.648438 -10.074219 10 -9.398438 C 9.347656 -8.75 8.550781 -8.425781 7.574219 -8.425781 Z M 12.722656 -11.875 C 12.722656 -13.375 12.171875 -14.597656 11.125 -15.574219 C 10.074219 -16.523438 8.824219 -17 7.324219 -17 L 1.875 -17 L 1.875 0 L 3.625 0 L 3.625 -6.722656 L 7.324219 -6.722656 C 8.824219 -6.722656 10.097656 -7.199219 11.125 -8.148438 C 12.171875 -9.148438 12.722656 -10.375 12.722656 -11.875 Z M 12.722656 -11.875 "/></g></g></g><g fill="#053d5d" fill-opacity="1"><g transform="translate(239.683797, 195.749987)"><g><path d="M 16.847656 -8.550781 C 16.847656 -6.597656 16.148438 -4.949219 14.796875 -3.601562 C 13.421875 -2.226562 11.773438 -1.550781 9.847656 -1.550781 C 7.925781 -1.550781 6.273438 -2.226562 4.925781 -3.601562 C 3.550781 -4.949219 2.875 -6.597656 2.875 -8.550781 C 2.875 -10.449219 3.550781 -12.097656 4.925781 -13.472656 C 6.273438 -14.824219 7.925781 -15.523438 9.847656 -15.523438 C 11.773438 -15.523438 13.421875 -14.824219 14.796875 -13.472656 C 16.148438 -12.097656 16.847656 -10.449219 16.847656 -8.550781 Z M 18.597656 -8.550781 C 18.597656 -9.75 18.347656 -10.875 17.898438 -11.949219 C 17.449219 -13 16.824219 -13.921875 16.023438 -14.722656 C 15.222656 -15.5 14.296875 -16.125 13.25 -16.574219 C 12.171875 -17.023438 11.050781 -17.273438 9.847656 -17.273438 C 8.648438 -17.273438 7.5 -17.023438 6.449219 -16.574219 C 5.398438 -16.125 4.472656 -15.5 3.675781 -14.722656 C 2.875 -13.921875 2.25 -13 1.800781 -11.949219 C 1.351562 -10.875 1.125 -9.75 1.125 -8.550781 C 1.125 -7.347656 1.351562 -6.199219 1.800781 -5.148438 C 2.25 -4.074219 2.875 -3.148438 3.675781 -2.351562 C 4.472656 -1.550781 5.398438 -0.925781 6.449219 -0.476562 C 7.5 -0.0234375 8.648438 0.199219 9.847656 0.199219 C 11.050781 0.199219 12.171875 -0.0234375 13.25 -0.476562 C 14.296875 -0.925781 15.222656 -1.550781 16.023438 -2.351562 C 16.824219 -3.148438 17.449219 -4.074219 17.898438 -5.148438 C 18.347656 -6.199219 18.597656 -7.347656 18.597656 -8.550781 Z M 18.597656 -8.550781 "/></g></g></g><g fill="#053d5d" fill-opacity="1"><g transform="translate(271.13066, 195.749987)"><g><path d="M 15.074219 -8.5 C 15.074219 -9.722656 14.824219 -10.847656 14.375 -11.898438 C 13.921875 -12.949219 13.296875 -13.847656 12.523438 -14.597656 C 11.722656 -15.347656 10.800781 -15.921875 9.75 -16.347656 C 8.675781 -16.773438 7.523438 -17 6.324219 -17 L 1.875 -17 L 1.875 0 L 6.324219 0 C 7.523438 0 8.675781 -0.199219 9.75 -0.625 C 10.800781 -1.050781 11.722656 -1.648438 12.523438 -2.398438 C 13.296875 -3.148438 13.921875 -4.023438 14.375 -5.074219 C 14.824219 -6.125 15.074219 -7.25 15.074219 -8.5 Z M 13.375 -8.5 C 13.375 -6.550781 12.671875 -4.925781 11.324219 -3.648438 C 9.972656 -2.375 8.324219 -1.75 6.375 -1.75 L 3.625 -1.75 L 3.625 -15.25 L 6.375 -15.25 C 8.324219 -15.25 9.972656 -14.597656 11.324219 -13.347656 C 12.671875 -12.046875 13.375 -10.425781 13.375 -8.5 Z M 13.375 -8.5 "/></g></g></g></svg>